
<svg width="512" height="512" viewBox="0 0 512 512" xmlns="http://www.w3.org/2000/svg">
  <defs>
    <linearGradient id="grad1" x1="0%" y1="0%" x2="100%" y2="100%">
      <stop offset="0%" style="stop-color:#3b82f6;stop-opacity:1" />
      <stop offset="50%" style="stop-color:#1d4ed8;stop-opacity:1" />
      <stop offset="100%" style="stop-color:#1e40af;stop-opacity:1" />
    </linearGradient>
  </defs>
  <!-- Background circle -->
  <circle cx="256" cy="256" r="240" fill="url(#grad1)" />
  
  <!-- University building icon -->
  <g transform="translate(256, 256)">
    <!-- Main building base -->
    <rect x="-100" y="40" width="200" height="120" fill="white" rx="8"/>
    
    <!-- Pillars -->
    <rect x="-80" y="40" width="20" height="120" fill="#f1f5f9"/>
    <rect x="-30" y="40" width="20" height="120" fill="#f1f5f9"/>
    <rect x="20" y="40" width="20" height="120" fill="#f1f5f9"/>
    <rect x="70" y="40" width="20" height="120" fill="#f1f5f9"/>
    
    <!-- Roof -->
    <polygon points="-120,40 0,-40 120,40" fill="white"/>
    
    <!-- Flag pole -->
    <rect x="-4" y="-80" width="8" height="120" fill="white"/>
    
    <!-- Flag -->
    <rect x="4" y="-80" width="40" height="25" fill="#ef4444"/>
    
    <!-- Windows -->
    <rect x="-60" y="60" width="15" height="20" fill="#3b82f6" rx="2"/>
    <rect x="-10" y="60" width="15" height="20" fill="#3b82f6" rx="2"/>
    <rect x="40" y="60" width="15" height="20" fill="#3b82f6" rx="2"/>
    
    <!-- Door -->
    <rect x="-15" y="120" width="30" height="40" fill="#1e40af" rx="4"/>
    <circle cx="8" cy="140" r="2" fill="white"/>
    
    <!-- Text -->
    <text x="0" y="-100" text-anchor="middle" fill="white" font-family="Arial, sans-serif" font-size="32" font-weight="bold">U</text>
  </g>
</svg>
